<svg width="20" height="20" viewBox="0 0 20 20" fill="none" xmlns="http://www.w3.org/2000/svg">
<path d="M3.33335 1.66651C2.41252 1.66651 1.66669 2.41234 1.66669 3.33317V4.99984V7.49984C1.66669 8.41072 2.42247 9.1665 3.33335 9.1665H7.50002C8.41091 9.1665 9.16668 8.41072 9.16668 7.49984V4.1665V3.33317C9.16668 2.41234 8.42085 1.6665 7.50002 1.6665L3.33335 1.66651ZM12.5 1.66651C11.5792 1.66651 10.8334 2.41234 10.8334 3.33317V4.99984V7.49984C10.8334 8.41072 11.5891 9.1665 12.5 9.1665H16.6667C17.5776 9.1665 18.3334 8.41072 18.3334 7.49984V4.1665V3.33317C18.3334 2.41234 17.5875 1.6665 16.6667 1.6665L12.5 1.66651ZM3.33335 4.99984H7.50002V7.49984H3.33335V4.99984ZM12.5 4.99984H16.6667V7.49984H12.5V4.99984ZM3.33335 10.8332C2.41252 10.8332 1.66669 11.579 1.66669 12.4998V13.3332V14.1665V16.6665C1.66669 17.5774 2.42247 18.3332 3.33335 18.3332H7.50002C8.41091 18.3332 9.16668 17.5774 9.16668 16.6665V14.1665V13.3332V12.4998C9.16668 11.579 8.42085 10.8332 7.50002 10.8332H3.33335ZM12.5 10.8332C11.5792 10.8332 10.8334 11.579 10.8334 12.4998V14.1665V16.6665C10.8334 17.5774 11.5891 18.3332 12.5 18.3332H16.6667C17.5776 18.3332 18.3334 17.5774 18.3334 16.6665V13.3332V12.4998C18.3334 11.579 17.5875 10.8332 16.6667 10.8332L12.5 10.8332ZM3.33335 14.1665H7.50002V16.6665H3.33335V14.1665ZM12.5 14.1665H16.6667V16.6665H12.5V14.1665Z" fill="white"/>
</svg>
