<svg width="20" height="20" viewBox="0 0 20 20" fill="none" xmlns="http://www.w3.org/2000/svg">
<path d="M3.52049 3.52051C1.86132 5.18051 0.833313 7.4725 0.833313 10C0.833313 12.5275 1.86132 14.8195 3.52049 16.4795L4.69887 15.3011C3.34054 13.9428 2.49998 12.0675 2.49998 10C2.49998 7.9325 3.34054 6.05723 4.69887 4.69889L3.52049 3.52051ZM16.4795 3.52051L15.3011 4.69889C16.6594 6.05723 17.5 7.9325 17.5 10C17.5 12.0675 16.6594 13.9428 15.3011 15.3011L16.4795 16.4795C18.1386 14.8195 19.1666 12.5275 19.1666 10C19.1666 7.4725 18.1386 5.18051 16.4795 3.52051ZM5.87726 5.87728C4.82059 6.93311 4.16665 8.39167 4.16665 10C4.16665 11.6083 4.82059 13.0669 5.87726 14.1227L7.05564 12.9443C6.30064 12.1902 5.83331 11.1483 5.83331 10C5.83331 8.85167 6.30148 7.81066 7.05564 7.05566L5.87726 5.87728ZM14.1227 5.87728L12.9443 7.05566C13.6993 7.80983 14.1666 8.85167 14.1666 10C14.1666 11.1483 13.6985 12.1893 12.9443 12.9443L14.1227 14.1227C15.1785 13.0661 15.8333 11.6083 15.8333 10C15.8333 8.39167 15.1794 6.93311 14.1227 5.87728ZM9.99998 7.5C8.61927 7.5 7.49998 8.61929 7.49998 10C7.49998 11.3807 8.61927 12.5 9.99998 12.5C11.3807 12.5 12.5 11.3807 12.5 10C12.5 8.61929 11.3807 7.5 9.99998 7.5Z" fill="#E0E0E0"/>
</svg>
